<svg height="513pt" viewBox="0 -86 513.05413 513" width="513pt" xmlns="http://www.w3.org/2000/svg"><path d="m187.917969 104.300781-36.785157 62.164063-1.640624 2.777344c.128906.203124.253906.40625.382812.609374 16.433594 27.773438 36.097656 28.320313 57.886719-.726562 3.222656-4.289062 6.480469-9.214844 9.789062-14.800781zm0 0" fill="#abc7ff"/><path d="m498.492188 292.730469c-32.519532-54.949219-111.832032-189.042969-118.996094-201.171875-1.972656 7.203125-4.582032 13.261718-7.625 18.253906-16.253906 26.628906-45.160156 22.4375-60.054688-2.726562-1.347656-2.277344-2.796875-4.351563-4.300781-6.246094-18.214844-23.015625-46.839844-19.273438-57.277344-1.785156 0 0-39.28125 65.792968-42.5 70.085937-21.792969 29.042969-41.445312 28.496094-57.890625.722656-.125-.203125-.253906-.40625-.378906-.609375l-13.953125 23.609375-64.53125 109.058594c-5.398437 9.164063-2.164063 20.863281 7.242187 26.132813 3.082032 1.730468 6.453126 2.542968 9.773438 2.542968v.078125h390.421875c13.605469 0 24.628906-10.757812 24.628906-24.03125-.015625-5.179687-1.695312-9.980469-4.558593-13.914062zm0 0" fill="#7cdb49"/><path d="m305.503906 102.886719 1.820313-2.277344c-.089844-.101563-.164063-.214844-.253907-.320313zm0 0" fill="#abc7ff"/><path d="m346.25 35.390625-37.664062 63.652344-.011719.011719-1.238281 1.554687c1.578124 1.972656 3.082031 4.109375 4.496093 6.492187 14.890625 25.164063 43.796875 29.339844 60.050781 2.722657 3.042969-4.976563 5.640626-11.035157 7.625-18.253907-11.097656-18.722656-22.171874-37.457031-33.257812-56.179687zm0 0" fill="#abc7ff"/><path d="m115.457031 128.128906c1.605469.953125 3.371094 1.410156 5.117188 1.410156 3.410156 0 6.746093-1.742187 8.617187-4.898437l.140625-.230469c2.824219-4.757812 1.273438-10.90625-3.488281-13.734375-4.761719-2.824219-10.910156-1.269531-13.734375 3.488281l-.140625.230469c-2.824219 4.761719-1.273438 10.90625 3.488281 13.734375zm0 0"/><path d="m418.519531 320.65625h-.265625c-5.539062 0-10.019531 4.496094-10.019531 10.019531 0 5.523438 4.496094 10.015625 10.019531 10.015625h.265625c5.539063 0 10.019531-4.492187 10.019531-10.015625 0-5.523437-4.480468-10.019531-10.019531-10.019531zm0 0"/><path d="m506.894531 287.257812c-26.667969-45.070312-146.210937-247.160156-159.957031-270.390624-9.546875-16.085938-30.691406-21.625-47.136719-12.332032-5.828125 3.296875-10.5 8.121094-13.542969 13.976563l-68.730468 116.144531-33.171875-56.042969c-8.195313-13.796875-26.320313-18.558593-40.414063-10.589843-5.089844 2.878906-9.148437 7.117187-11.773437 12.269531-2.507813 4.941406-.53125 10.972656 4.40625 13.46875 4.9375 2.507812 10.972656.535156 13.464843-4.40625.816407-1.613281 2.113282-2.964844 3.757813-3.878907 4.667969-2.636718 10.640625-1.121093 13.3125 3.359376l38.707031 65.410156c-10.792968 16.953125-21.257812 26.550781-29.085937 26.550781-7.253907 0-13.9375-8.71875-18.265625-16.023437-6.183594-10.449219-15.09375-17.109376-25.773438-19.246094-5.753906-1.144532-11.480468-.929688-16.851562.050781.496094-3.84375-1.285156-7.800781-4.835938-9.902344-4.761718-2.8125-10.910156-1.246093-13.722656 3.527344l-93.273438 157.628906c-3.9726558 6.730469-5.027343 14.585938-3.003906 22.105469 2.046875 7.613281 7.011719 13.953125 13.976563 17.847656 4.019531 2.253906 8.527343 3.550782 13.132812 3.792969.511719.074219 1.019531.113281 1.542969.113281h348.539062c5.539063 0 10.019532-4.492187 10.019532-10.015625 0-5.523437-4.492188-10.019531-10.019532-10.019531h-347.292968c-.421875-.050781-.839844-.074219-1.261719-.074219h-.011719c-1.691406 0-3.371094-.433593-4.863281-1.273437-2.214844-1.246094-3.777344-3.234375-4.429687-5.585938-.609376-2.28125-.292969-4.660156.917968-6.695312l79.042969-133.574219c5.703125-3.765625 18.394531-10.335937 28.511719-8.273437 5.066406 1.03125 9.125 4.238281 12.421875 9.789062 10.160156 17.15625 22.109375 25.863281 35.515625 25.863281 13.679687 0 26.96875-9.035156 40.359375-27.519531l40.453125 68.351562c1.804687 3.042969 5.078125 4.914063 8.617187 4.914063 3.535157 0 6.820313-1.871094 8.617188-4.914063l35.753906-60.40625c2.8125-4.761718 1.246094-10.910156-3.527344-13.722656-4.761719-2.8125-10.910156-1.246094-13.722656 3.527344l-27.121094 45.847656-37.015625-62.550781 29.644532-50.085937c3.460937-5.855469 10.335937-9.480469 17.945312-9.480469 10.246094 0 19.882812 6.351562 26.4375 17.4375 9.625 16.253906 24.730469 25.789062 40.335938 25.789062 1.695312 0 3.386718-.117187 5.078124-.34375 13.304688-1.785156 24.554688-10.171875 32.460938-23.726562 9.53125 16.125 82.058594 138.726562 108.800781 183.910156.164063.28125.34375.550781.523438.804687 1.714843 2.355469 2.621093 5.117188 2.621093 8.003907 0 7.726562-6.554687 14.015625-14.613281 14.015625h-31.09375c-5.539062 0-10.019531 4.492187-10.019531 10.015625 0 5.523437 4.492188 10.019531 10.019531 10.019531h31.09375c19.105469 0 34.660157-15.273438 34.660157-34.050781 0-7-2.125-13.695313-6.160157-19.410157zm-160.9375-169.476562c-9.242187 1.234375-19.019531-4.8125-25.507812-15.785156-10.261719-17.335938-26.183594-27.277344-43.683594-27.277344-.167969 0-.320313.011719-.484375.011719l27.378906-46.265625c.113282-.191406.214844-.382813.316406-.574219 1.25-2.457031 3.222657-4.503906 5.691407-5.90625 7.011719-3.957031 16-1.667969 20.019531 5.117187 12.984375 21.933594 25.941406 43.851563 38.910156 65.78125-4.847656 14.585938-12.96875 23.597657-22.640625 24.898438zm0 0"/></svg>