<svg xmlns="http://www.w3.org/2000/svg" viewBox="0 0 328.57 119.9"><defs><style>.cls-1{fill:#fff;}</style></defs><g id="Layer_2" data-name="Layer 2"><g id="Layer_1-2" data-name="Layer 1"><path class="cls-1" d="M90.55,1.16V82.08H74.32V1.16Z"/><path class="cls-1" d="M284.69,80A25,25,0,0,1,274,71.65a22,22,0,0,1-4.06-12.87h17.39a11.26,11.26,0,0,0,3.54,7.88c2.13,1.94,5,2.9,8.75,2.9s6.77-.9,8.93-2.72a8.88,8.88,0,0,0,3.25-7.13,8.21,8.21,0,0,0-2.21-5.91,15.33,15.33,0,0,0-5.5-3.66,93.33,93.33,0,0,0-9.1-3,99.39,99.39,0,0,1-12.82-4.58,22.54,22.54,0,0,1-8.46-6.84q-3.54-4.59-3.53-12.23A21.86,21.86,0,0,1,273.73,11a22.89,22.89,0,0,1,10.09-8.17A36.71,36.71,0,0,1,298.66,0Q311.17,0,319,6.09t8.64,17H309.79a9.32,9.32,0,0,0-3.54-6.9,13.35,13.35,0,0,0-8.75-2.72,11.31,11.31,0,0,0-7.6,2.43q-2.83,2.45-2.84,7.08a7.32,7.32,0,0,0,2.15,5.39,16.14,16.14,0,0,0,5.33,3.47q3.19,1.34,9,3.08a93.65,93.65,0,0,1,12.87,4.64,23.11,23.11,0,0,1,8.58,7q3.58,4.63,3.59,12.18a22.9,22.9,0,0,1-3.36,12,23.78,23.78,0,0,1-9.86,8.87,33.66,33.66,0,0,1-15.42,3.31A38.45,38.45,0,0,1,284.69,80Z"/><path class="cls-1" d="M23.8,102.91l-4.7,16.82h-4l-3.16-12-3.3,12-3.95,0L.19,102.91H3.8l3,13.06,3.42-13.06H14l3.22,13,3-13Z"/><path class="cls-1" d="M46,105.63v4.22h5.66v2.67H46V117h6.38v2.75H42.61V102.89h9.76v2.74Z"/><path class="cls-1" d="M83.93,112.52a4.17,4.17,0,0,1,.92,2.65,4.25,4.25,0,0,1-.67,2.38,4.46,4.46,0,0,1-1.91,1.6,7.1,7.1,0,0,1-3,.58H72.05V102.91H79a7.15,7.15,0,0,1,3,.56A4.09,4.09,0,0,1,83.82,105a4,4,0,0,1,.64,2.24,3.8,3.8,0,0,1-.78,2.45,4.2,4.2,0,0,1-2.09,1.4A3.8,3.8,0,0,1,83.93,112.52Zm-8.5-2.67h3.08a2.86,2.86,0,0,0,1.86-.54,1.92,1.92,0,0,0,.65-1.56,2,2,0,0,0-.65-1.56,2.81,2.81,0,0,0-1.86-.56H75.43Zm5.31,6.55a2,2,0,0,0,.69-1.64,2.09,2.09,0,0,0-.73-1.69,2.91,2.91,0,0,0-2-.62H75.43V117h3.39A2.88,2.88,0,0,0,80.74,116.4Z"/><path class="cls-1" d="M137.06,104a7.38,7.38,0,0,1,3.11,3,8.81,8.81,0,0,1,1.1,4.44,8.65,8.65,0,0,1-1.1,4.42,7.46,7.46,0,0,1-3.11,2.93,10,10,0,0,1-4.66,1h-5.88V102.91h5.88A10,10,0,0,1,137.06,104Zm-.68,11.46a5.51,5.51,0,0,0,1.44-4.07,5.61,5.61,0,0,0-1.44-4.1,5.47,5.47,0,0,0-4.1-1.49H129.9v11.11h2.38A5.53,5.53,0,0,0,136.38,115.41Z"/><path class="cls-1" d="M163.79,105.63v4.22h5.67v2.67h-5.67V117h6.39v2.75h-9.76V102.89h9.76v2.74Z"/><path class="cls-1" d="M192.5,119.29a5.18,5.18,0,0,1-2.23-1.73,4.51,4.51,0,0,1-.84-2.67H193a2.33,2.33,0,0,0,.73,1.63,2.63,2.63,0,0,0,1.82.61,2.79,2.79,0,0,0,1.86-.57,1.84,1.84,0,0,0,.67-1.48,1.73,1.73,0,0,0-.45-1.23,3.21,3.21,0,0,0-1.15-.76,19.5,19.5,0,0,0-1.89-.61,20.35,20.35,0,0,1-2.66-1,4.53,4.53,0,0,1-1.76-1.42,4,4,0,0,1-.74-2.54,4.54,4.54,0,0,1,.75-2.6,4.74,4.74,0,0,1,2.1-1.7,7.66,7.66,0,0,1,3.08-.59,6.71,6.71,0,0,1,4.23,1.26,4.72,4.72,0,0,1,1.79,3.54h-3.71A1.92,1.92,0,0,0,197,106a2.75,2.75,0,0,0-1.82-.56,2.34,2.34,0,0,0-1.58.5,1.85,1.85,0,0,0-.59,1.47,1.52,1.52,0,0,0,.45,1.12,3.19,3.19,0,0,0,1.1.72,19.39,19.39,0,0,0,1.87.64,19.72,19.72,0,0,1,2.68,1,4.81,4.81,0,0,1,1.78,1.44,4,4,0,0,1,.75,2.53,4.82,4.82,0,0,1-.7,2.51,5,5,0,0,1-2,1.84,7,7,0,0,1-3.2.69A8,8,0,0,1,192.5,119.29Z"/><path class="cls-1" d="M224.53,102.91v16.82h-3.38V102.91Z"/><path class="cls-1" d="M256.18,108a3.86,3.86,0,0,0-1.59-1.61,4.82,4.82,0,0,0-2.36-.56,5.17,5.17,0,0,0-2.65.68,4.64,4.64,0,0,0-1.8,1.92,6.72,6.72,0,0,0,0,5.83,4.63,4.63,0,0,0,1.84,1.93,5.44,5.44,0,0,0,2.75.68,4.72,4.72,0,0,0,3.15-1,4.89,4.89,0,0,0,1.62-2.85h-5.79v-2.58h9.11v2.94a7.91,7.91,0,0,1-1.44,3.25,8.17,8.17,0,0,1-2.86,2.4,8.4,8.4,0,0,1-3.91.9,8.86,8.86,0,0,1-4.4-1.09,7.92,7.92,0,0,1-3.08-3,9.36,9.36,0,0,1,0-8.88,7.88,7.88,0,0,1,3.08-3.06,9.42,9.42,0,0,1,9.31.29,7,7,0,0,1,2.89,3.89Z"/><path class="cls-1" d="M294,119.73h-3.37L283,108.19v11.54H279.6V102.89H283l7.64,11.56V102.89H294Z"/><path class="cls-1" d="M316.57,119.29a5.18,5.18,0,0,1-2.23-1.73,4.51,4.51,0,0,1-.84-2.67h3.61a2.33,2.33,0,0,0,.73,1.63,2.62,2.62,0,0,0,1.82.61,2.79,2.79,0,0,0,1.86-.57,1.84,1.84,0,0,0,.67-1.48,1.69,1.69,0,0,0-.46-1.23,3.08,3.08,0,0,0-1.14-.76,19.5,19.5,0,0,0-1.89-.61,20.35,20.35,0,0,1-2.66-1,4.53,4.53,0,0,1-1.76-1.42,4,4,0,0,1-.74-2.54,4.54,4.54,0,0,1,.75-2.6,4.74,4.74,0,0,1,2.1-1.7,7.62,7.62,0,0,1,3.08-.59,6.71,6.71,0,0,1,4.23,1.26,4.72,4.72,0,0,1,1.79,3.54h-3.71a1.92,1.92,0,0,0-.73-1.44,2.77,2.77,0,0,0-1.82-.56,2.34,2.34,0,0,0-1.58.5,1.85,1.85,0,0,0-.59,1.47,1.52,1.52,0,0,0,.45,1.12,3.19,3.19,0,0,0,1.1.72,19.39,19.39,0,0,0,1.87.64,19.72,19.72,0,0,1,2.68,1,4.81,4.81,0,0,1,1.78,1.44,4,4,0,0,1,.75,2.53,4.82,4.82,0,0,1-.7,2.51,5,5,0,0,1-2.05,1.84,7,7,0,0,1-3.21.69A8,8,0,0,1,316.57,119.29Z"/><polygon class="cls-1" points="137.86 59.82 117.56 1.16 100.17 1.16 129.85 82.08 137.86 59.82 137.86 59.82"/><polygon class="cls-1" points="161.97 1.16 139.82 65.51 139.82 65.5 134.1 82.08 149.56 82.08 179.24 1.16 161.97 1.16"/><path class="cls-1" d="M41.16,49.27Q50.31,46.84,55,40.4A24.09,24.09,0,0,0,59.59,26a24.39,24.39,0,0,0-3.3-12.58,23.19,23.19,0,0,0-9.91-8.93,35.53,35.53,0,0,0-16-3.3H0V34.53H16.23V14.61H29.8q6.6,0,9.85,3.07c2.16,2.05,3.25,4.93,3.25,8.64s-1.09,6.74-3.25,8.87-5.45,3.18-9.85,3.18H0V82.08H16.23V50.55h7.65L41.74,82.08H60.52Z"/><polygon class="cls-1" points="231.99 1.04 213.1 1.04 195.81 49.17 212.34 49.17 222.49 19.83 234.2 53.68 218.43 53.68 210.78 53.68 194.19 53.68 184 82.08 201.04 82.08 206.37 66.66 238.6 66.66 243.94 82.08 261.09 82.08 231.99 1.04"/></g></g></svg>